<svg fill="none" height="48" viewBox="0 0 42 48" width="42" xmlns="http://www.w3.org/2000/svg"><g fill="#fff"><path d="m14.1061 19.6565c5.499-2.6299 9.8025-7.0929 12.2731-12.67168-1.5939-1.67362-3.666-2.86907-5.8975-3.58634l-1.1954-.39848c-.0797.15939-.1594.39849-.1594.55788-1.9127 5.41936-5.8178 9.80262-11.07766 12.27322-3.66599 1.7533-6.37564 4.9412-7.650763 8.7666l-.398477 1.1955c.159391.0797.39848.1593.557871.1593 1.514209.5579 3.028419 1.2752 4.462939 2.1519 1.99238-3.5864 5.18019-6.6148 9.08529-8.4479z"/><path d="m37.2173 19.9753c-2.9487 4.463-7.0132 8.0494-12.034 10.4403-4.0645 1.9127-7.1726 5.499-8.6071 9.8026l-.3985 1.3549c1.5142 1.3548 3.3472 2.3909 5.3396 3.0284l1.1955.3985c.0796-.1594.1593-.3985.1593-.5579 1.9127-5.4193 5.8178-9.8026 11.0777-12.2732 3.666-1.7533 6.4553-4.9412 7.6507-8.7666l.3985-1.1954c-1.6736-.4782-3.2675-1.2752-4.7817-2.2316z" opacity=".5"/><path d="m12.9903 37.4284c1.9924-4.7818 5.6584-8.6869 10.3604-10.9184 4.3035-2.0721 7.8898-5.26 10.3604-9.1651-1.833-1.7533-3.3472-3.7458-4.463-6.1366-2.9487 5.4193-7.571 9.8026-13.2294 12.5123-3.2675 1.5142-5.8974 4.1442-7.49136 7.3321 1.75326 1.6736 3.18786 3.7457 4.30356 6.0569 0 0 .0797.1594.1594.3188z" opacity=".7"/></g></svg>